<svg xmlns="http://www.w3.org/2000/svg" viewBox="0 0 1200 532" width="1200" height="532" role="img" aria-label="FM-7 keyboard map for MiSTer">
<title>FM-7 keyboard map</title>
<style>
  :root { --bg:#faf9f7; --k:#ffffff; --k-diff:#fdf0d5; --edge:#c9c4bc;
           --ink:#1d1d1f; --dim:#8a857d; --accent:#9a3412; }
  @media (prefers-color-scheme: dark) {
    :root { --bg:#17181a; --k:#25262a; --k-diff:#3a2f1c; --edge:#44464b;
             --ink:#f2f2f3; --dim:#9b9791; --accent:#f0a868; }
  }
  text { font-family: ui-sans-serif, system-ui, -apple-system, "Segoe UI", Helvetica, Arial, sans-serif; }
  .pc  { font-size:11px; fill:var(--dim); }
  .un  { font-size:17px; fill:var(--ink); text-anchor:middle; font-weight:600; }
  .un.big { font-size:14px; }
  .sh  { font-size:14px; fill:var(--accent); text-anchor:middle; font-weight:600; }
  .h1  { font-size:23px; fill:var(--ink); font-weight:700; }
  .h2  { font-size:13px; fill:var(--dim); }
  .lg  { font-size:12px; fill:var(--dim); }
</style>
<rect width="100%" height="100%" fill="var(--bg)"/>
<text x="22" y="38" class="h1">FM-7 keyboard on MiSTer</text>
<text x="22" y="60" class="h2">The layout is JIS-positional: keys keep the FM-7's positions, so some type a different character than your PC cap says.</text>
<text x="22" y="78" class="h2">Small grey = your PC key. Large = what the FM-7 types. Orange = with SHIFT. Shaded keys differ from a US layout.</text>
<g><rect x="22.0" y="104.0" width="56.0" height="56.0" rx="7" fill="var(--k)" stroke="var(--edge)" stroke-width="1"/><text x="29.0" y="119.0" class="pc">Esc</text><text x="50.0" y="146.0" class="un big">ESC</text></g><g><rect x="84.0" y="104.0" width="56.0" height="56.0" rx="7" fill="var(--k)" stroke="var(--edge)" stroke-width="1"/><text x="91.0" y="119.0" class="pc">F1</text><text x="112.0" y="146.0" class="un big">PF1</text></g><g><rect x="146.0" y="104.0" width="56.0" height="56.0" rx="7" fill="var(--k)" stroke="var(--edge)" stroke-width="1"/><text x="153.0" y="119.0" class="pc">F2</text><text x="174.0" y="146.0" class="un big">PF2</text></g><g><rect x="208.0" y="104.0" width="56.0" height="56.0" rx="7" fill="var(--k)" stroke="var(--edge)" stroke-width="1"/><text x="215.0" y="119.0" class="pc">F3</text><text x="236.0" y="146.0" class="un big">PF3</text></g><g><rect x="270.0" y="104.0" width="56.0" height="56.0" rx="7" fill="var(--k)" stroke="var(--edge)" stroke-width="1"/><text x="277.0" y="119.0" class="pc">F4</text><text x="298.0" y="146.0" class="un big">PF4</text></g><g><rect x="332.0" y="104.0" width="56.0" height="56.0" rx="7" fill="var(--k)" stroke="var(--edge)" stroke-width="1"/><text x="339.0" y="119.0" class="pc">F5</text><text x="360.0" y="146.0" class="un big">PF5</text></g><g><rect x="394.0" y="104.0" width="56.0" height="56.0" rx="7" fill="var(--k)" stroke="var(--edge)" stroke-width="1"/><text x="401.0" y="119.0" class="pc">F6</text><text x="422.0" y="146.0" class="un big">PF6</text></g><g><rect x="456.0" y="104.0" width="56.0" height="56.0" rx="7" fill="var(--k)" stroke="var(--edge)" stroke-width="1"/><text x="463.0" y="119.0" class="pc">F7</text><text x="484.0" y="146.0" class="un big">PF7</text></g><g><rect x="518.0" y="104.0" width="56.0" height="56.0" rx="7" fill="var(--k)" stroke="var(--edge)" stroke-width="1"/><text x="525.0" y="119.0" class="pc">F8</text><text x="546.0" y="146.0" class="un big">PF8</text></g><g><rect x="580.0" y="104.0" width="56.0" height="56.0" rx="7" fill="var(--k)" stroke="var(--edge)" stroke-width="1"/><text x="587.0" y="119.0" class="pc">F9</text><text x="608.0" y="146.0" class="un big">PF9</text></g><g><rect x="642.0" y="104.0" width="56.0" height="56.0" rx="7" fill="var(--k)" stroke="var(--edge)" stroke-width="1"/><text x="649.0" y="119.0" class="pc">F10</text><text x="670.0" y="146.0" class="un big">PF10</text></g><g><rect x="22.0" y="166.0" width="56.0" height="56.0" rx="7" fill="var(--k-diff)" stroke="var(--edge)" stroke-width="1"/><text x="29.0" y="181.0" class="pc">`</text><text x="50.0" y="208.0" class="un big">]</text></g><g><rect x="84.0" y="166.0" width="56.0" height="56.0" rx="7" fill="var(--k)" stroke="var(--edge)" stroke-width="1"/><text x="91.0" y="181.0" class="pc">1</text><text x="112.0" y="200.0" class="sh">!</text><text x="112.0" y="216.0" class="un">1</text></g><g><rect x="146.0" y="166.0" width="56.0" height="56.0" rx="7" fill="var(--k-diff)" stroke="var(--edge)" stroke-width="1"/><text x="153.0" y="181.0" class="pc">2</text><text x="174.0" y="200.0" class="sh">&quot;</text><text x="174.0" y="216.0" class="un">2</text></g><g><rect x="208.0" y="166.0" width="56.0" height="56.0" rx="7" fill="var(--k)" stroke="var(--edge)" stroke-width="1"/><text x="215.0" y="181.0" class="pc">3</text><text x="236.0" y="200.0" class="sh">#</text><text x="236.0" y="216.0" class="un">3</text></g><g><rect x="270.0" y="166.0" width="56.0" height="56.0" rx="7" fill="var(--k)" stroke="var(--edge)" stroke-width="1"/><text x="277.0" y="181.0" class="pc">4</text><text x="298.0" y="200.0" class="sh">$</text><text x="298.0" y="216.0" class="un">4</text></g><g><rect x="332.0" y="166.0" width="56.0" height="56.0" rx="7" fill="var(--k)" stroke="var(--edge)" stroke-width="1"/><text x="339.0" y="181.0" class="pc">5</text><text x="360.0" y="200.0" class="sh">%</text><text x="360.0" y="216.0" class="un">5</text></g><g><rect x="394.0" y="166.0" width="56.0" height="56.0" rx="7" fill="var(--k-diff)" stroke="var(--edge)" stroke-width="1"/><text x="401.0" y="181.0" class="pc">6</text><text x="422.0" y="200.0" class="sh">&amp;</text><text x="422.0" y="216.0" class="un">6</text></g><g><rect x="456.0" y="166.0" width="56.0" height="56.0" rx="7" fill="var(--k-diff)" stroke="var(--edge)" stroke-width="1"/><text x="463.0" y="181.0" class="pc">7</text><text x="484.0" y="200.0" class="sh">&#x27;</text><text x="484.0" y="216.0" class="un">7</text></g><g><rect x="518.0" y="166.0" width="56.0" height="56.0" rx="7" fill="var(--k-diff)" stroke="var(--edge)" stroke-width="1"/><text x="525.0" y="181.0" class="pc">8</text><text x="546.0" y="200.0" class="sh">(</text><text x="546.0" y="216.0" class="un">8</text></g><g><rect x="580.0" y="166.0" width="56.0" height="56.0" rx="7" fill="var(--k-diff)" stroke="var(--edge)" stroke-width="1"/><text x="587.0" y="181.0" class="pc">9</text><text x="608.0" y="200.0" class="sh">)</text><text x="608.0" y="216.0" class="un">9</text></g><g><rect x="642.0" y="166.0" width="56.0" height="56.0" rx="7" fill="var(--k-diff)" stroke="var(--edge)" stroke-width="1"/><text x="649.0" y="181.0" class="pc">0</text><text x="670.0" y="208.0" class="un big">0</text></g><g><rect x="704.0" y="166.0" width="56.0" height="56.0" rx="7" fill="var(--k-diff)" stroke="var(--edge)" stroke-width="1"/><text x="711.0" y="181.0" class="pc">-</text><text x="732.0" y="200.0" class="sh">=</text><text x="732.0" y="216.0" class="un">-</text></g><g><rect x="766.0" y="166.0" width="56.0" height="56.0" rx="7" fill="var(--k-diff)" stroke="var(--edge)" stroke-width="1"/><text x="773.0" y="181.0" class="pc">=</text><text x="794.0" y="200.0" class="sh">~</text><text x="794.0" y="216.0" class="un">^</text></g><g><rect x="828.0" y="166.0" width="118.0" height="56.0" rx="7" fill="var(--k)" stroke="var(--edge)" stroke-width="1"/><text x="835.0" y="181.0" class="pc">Bksp</text><text x="887.0" y="208.0" class="un big">BS</text></g><g><rect x="22.0" y="228.0" width="87.0" height="56.0" rx="7" fill="var(--k)" stroke="var(--edge)" stroke-width="1"/><text x="29.0" y="243.0" class="pc">Tab</text><text x="65.5" y="270.0" class="un big">TAB</text></g><g><rect x="115.0" y="228.0" width="56.0" height="56.0" rx="7" fill="var(--k)" stroke="var(--edge)" stroke-width="1"/><text x="122.0" y="243.0" class="pc">q</text><text x="143.0" y="262.0" class="sh">Q</text><text x="143.0" y="278.0" class="un">q</text></g><g><rect x="177.0" y="228.0" width="56.0" height="56.0" rx="7" fill="var(--k)" stroke="var(--edge)" stroke-width="1"/><text x="184.0" y="243.0" class="pc">w</text><text x="205.0" y="262.0" class="sh">W</text><text x="205.0" y="278.0" class="un">w</text></g><g><rect x="239.0" y="228.0" width="56.0" height="56.0" rx="7" fill="var(--k)" stroke="var(--edge)" stroke-width="1"/><text x="246.0" y="243.0" class="pc">e</text><text x="267.0" y="262.0" class="sh">E</text><text x="267.0" y="278.0" class="un">e</text></g><g><rect x="301.0" y="228.0" width="56.0" height="56.0" rx="7" fill="var(--k)" stroke="var(--edge)" stroke-width="1"/><text x="308.0" y="243.0" class="pc">r</text><text x="329.0" y="262.0" class="sh">R</text><text x="329.0" y="278.0" class="un">r</text></g><g><rect x="363.0" y="228.0" width="56.0" height="56.0" rx="7" fill="var(--k)" stroke="var(--edge)" stroke-width="1"/><text x="370.0" y="243.0" class="pc">t</text><text x="391.0" y="262.0" class="sh">T</text><text x="391.0" y="278.0" class="un">t</text></g><g><rect x="425.0" y="228.0" width="56.0" height="56.0" rx="7" fill="var(--k)" stroke="var(--edge)" stroke-width="1"/><text x="432.0" y="243.0" class="pc">y</text><text x="453.0" y="262.0" class="sh">Y</text><text x="453.0" y="278.0" class="un">y</text></g><g><rect x="487.0" y="228.0" width="56.0" height="56.0" rx="7" fill="var(--k)" stroke="var(--edge)" stroke-width="1"/><text x="494.0" y="243.0" class="pc">u</text><text x="515.0" y="262.0" class="sh">U</text><text x="515.0" y="278.0" class="un">u</text></g><g><rect x="549.0" y="228.0" width="56.0" height="56.0" rx="7" fill="var(--k)" stroke="var(--edge)" stroke-width="1"/><text x="556.0" y="243.0" class="pc">i</text><text x="577.0" y="262.0" class="sh">I</text><text x="577.0" y="278.0" class="un">i</text></g><g><rect x="611.0" y="228.0" width="56.0" height="56.0" rx="7" fill="var(--k)" stroke="var(--edge)" stroke-width="1"/><text x="618.0" y="243.0" class="pc">o</text><text x="639.0" y="262.0" class="sh">O</text><text x="639.0" y="278.0" class="un">o</text></g><g><rect x="673.0" y="228.0" width="56.0" height="56.0" rx="7" fill="var(--k)" stroke="var(--edge)" stroke-width="1"/><text x="680.0" y="243.0" class="pc">p</text><text x="701.0" y="262.0" class="sh">P</text><text x="701.0" y="278.0" class="un">p</text></g><g><rect x="735.0" y="228.0" width="56.0" height="56.0" rx="7" fill="var(--k-diff)" stroke="var(--edge)" stroke-width="1"/><text x="742.0" y="243.0" class="pc">[</text><text x="763.0" y="262.0" class="sh">`</text><text x="763.0" y="278.0" class="un">@</text></g><g><rect x="797.0" y="228.0" width="56.0" height="56.0" rx="7" fill="var(--k-diff)" stroke="var(--edge)" stroke-width="1"/><text x="804.0" y="243.0" class="pc">]</text><text x="825.0" y="262.0" class="sh">{</text><text x="825.0" y="278.0" class="un">[</text></g><g><rect x="859.0" y="228.0" width="87.0" height="56.0" rx="7" fill="var(--k)" stroke="var(--edge)" stroke-width="1"/><text x="866.0" y="243.0" class="pc">\</text><text x="902.5" y="262.0" class="sh">|</text><text x="902.5" y="278.0" class="un">\</text></g><g><rect x="22.0" y="290.0" width="102.5" height="56.0" rx="7" fill="var(--k)" stroke="var(--edge)" stroke-width="1"/><text x="29.0" y="305.0" class="pc">Caps</text><text x="73.2" y="332.0" class="un big">(none)</text></g><g><rect x="130.5" y="290.0" width="56.0" height="56.0" rx="7" fill="var(--k)" stroke="var(--edge)" stroke-width="1"/><text x="137.5" y="305.0" class="pc">a</text><text x="158.5" y="324.0" class="sh">A</text><text x="158.5" y="340.0" class="un">a</text></g><g><rect x="192.5" y="290.0" width="56.0" height="56.0" rx="7" fill="var(--k)" stroke="var(--edge)" stroke-width="1"/><text x="199.5" y="305.0" class="pc">s</text><text x="220.5" y="324.0" class="sh">S</text><text x="220.5" y="340.0" class="un">s</text></g><g><rect x="254.5" y="290.0" width="56.0" height="56.0" rx="7" fill="var(--k)" stroke="var(--edge)" stroke-width="1"/><text x="261.5" y="305.0" class="pc">d</text><text x="282.5" y="324.0" class="sh">D</text><text x="282.5" y="340.0" class="un">d</text></g><g><rect x="316.5" y="290.0" width="56.0" height="56.0" rx="7" fill="var(--k)" stroke="var(--edge)" stroke-width="1"/><text x="323.5" y="305.0" class="pc">f</text><text x="344.5" y="324.0" class="sh">F</text><text x="344.5" y="340.0" class="un">f</text></g><g><rect x="378.5" y="290.0" width="56.0" height="56.0" rx="7" fill="var(--k)" stroke="var(--edge)" stroke-width="1"/><text x="385.5" y="305.0" class="pc">g</text><text x="406.5" y="324.0" class="sh">G</text><text x="406.5" y="340.0" class="un">g</text></g><g><rect x="440.5" y="290.0" width="56.0" height="56.0" rx="7" fill="var(--k)" stroke="var(--edge)" stroke-width="1"/><text x="447.5" y="305.0" class="pc">h</text><text x="468.5" y="324.0" class="sh">H</text><text x="468.5" y="340.0" class="un">h</text></g><g><rect x="502.5" y="290.0" width="56.0" height="56.0" rx="7" fill="var(--k)" stroke="var(--edge)" stroke-width="1"/><text x="509.5" y="305.0" class="pc">j</text><text x="530.5" y="324.0" class="sh">J</text><text x="530.5" y="340.0" class="un">j</text></g><g><rect x="564.5" y="290.0" width="56.0" height="56.0" rx="7" fill="var(--k)" stroke="var(--edge)" stroke-width="1"/><text x="571.5" y="305.0" class="pc">k</text><text x="592.5" y="324.0" class="sh">K</text><text x="592.5" y="340.0" class="un">k</text></g><g><rect x="626.5" y="290.0" width="56.0" height="56.0" rx="7" fill="var(--k)" stroke="var(--edge)" stroke-width="1"/><text x="633.5" y="305.0" class="pc">l</text><text x="654.5" y="324.0" class="sh">L</text><text x="654.5" y="340.0" class="un">l</text></g><g><rect x="688.5" y="290.0" width="56.0" height="56.0" rx="7" fill="var(--k-diff)" stroke="var(--edge)" stroke-width="1"/><text x="695.5" y="305.0" class="pc">;</text><text x="716.5" y="324.0" class="sh">+</text><text x="716.5" y="340.0" class="un">;</text></g><g><rect x="750.5" y="290.0" width="56.0" height="56.0" rx="7" fill="var(--k-diff)" stroke="var(--edge)" stroke-width="1"/><text x="757.5" y="305.0" class="pc">&#x27;</text><text x="778.5" y="324.0" class="sh">*</text><text x="778.5" y="340.0" class="un">:</text></g><g><rect x="812.5" y="290.0" width="133.5" height="56.0" rx="7" fill="var(--k)" stroke="var(--edge)" stroke-width="1"/><text x="819.5" y="305.0" class="pc">Enter</text><text x="879.2" y="332.0" class="un big">RETURN</text></g><g><rect x="22.0" y="352.0" width="133.5" height="56.0" rx="7" fill="var(--k)" stroke="var(--edge)" stroke-width="1"/><text x="29.0" y="367.0" class="pc">Shift</text><text x="88.8" y="394.0" class="un big">SHIFT</text></g><g><rect x="161.5" y="352.0" width="56.0" height="56.0" rx="7" fill="var(--k)" stroke="var(--edge)" stroke-width="1"/><text x="168.5" y="367.0" class="pc">z</text><text x="189.5" y="386.0" class="sh">Z</text><text x="189.5" y="402.0" class="un">z</text></g><g><rect x="223.5" y="352.0" width="56.0" height="56.0" rx="7" fill="var(--k)" stroke="var(--edge)" stroke-width="1"/><text x="230.5" y="367.0" class="pc">x</text><text x="251.5" y="386.0" class="sh">X</text><text x="251.5" y="402.0" class="un">x</text></g><g><rect x="285.5" y="352.0" width="56.0" height="56.0" rx="7" fill="var(--k)" stroke="var(--edge)" stroke-width="1"/><text x="292.5" y="367.0" class="pc">c</text><text x="313.5" y="386.0" class="sh">C</text><text x="313.5" y="402.0" class="un">c</text></g><g><rect x="347.5" y="352.0" width="56.0" height="56.0" rx="7" fill="var(--k)" stroke="var(--edge)" stroke-width="1"/><text x="354.5" y="367.0" class="pc">v</text><text x="375.5" y="386.0" class="sh">V</text><text x="375.5" y="402.0" class="un">v</text></g><g><rect x="409.5" y="352.0" width="56.0" height="56.0" rx="7" fill="var(--k)" stroke="var(--edge)" stroke-width="1"/><text x="416.5" y="367.0" class="pc">b</text><text x="437.5" y="386.0" class="sh">B</text><text x="437.5" y="402.0" class="un">b</text></g><g><rect x="471.5" y="352.0" width="56.0" height="56.0" rx="7" fill="var(--k)" stroke="var(--edge)" stroke-width="1"/><text x="478.5" y="367.0" class="pc">n</text><text x="499.5" y="386.0" class="sh">N</text><text x="499.5" y="402.0" class="un">n</text></g><g><rect x="533.5" y="352.0" width="56.0" height="56.0" rx="7" fill="var(--k)" stroke="var(--edge)" stroke-width="1"/><text x="540.5" y="367.0" class="pc">m</text><text x="561.5" y="386.0" class="sh">M</text><text x="561.5" y="402.0" class="un">m</text></g><g><rect x="595.5" y="352.0" width="56.0" height="56.0" rx="7" fill="var(--k)" stroke="var(--edge)" stroke-width="1"/><text x="602.5" y="367.0" class="pc">,</text><text x="623.5" y="386.0" class="sh">&lt;</text><text x="623.5" y="402.0" class="un">,</text></g><g><rect x="657.5" y="352.0" width="56.0" height="56.0" rx="7" fill="var(--k)" stroke="var(--edge)" stroke-width="1"/><text x="664.5" y="367.0" class="pc">.</text><text x="685.5" y="386.0" class="sh">&gt;</text><text x="685.5" y="402.0" class="un">.</text></g><g><rect x="719.5" y="352.0" width="56.0" height="56.0" rx="7" fill="var(--k)" stroke="var(--edge)" stroke-width="1"/><text x="726.5" y="367.0" class="pc">/</text><text x="747.5" y="386.0" class="sh">?</text><text x="747.5" y="402.0" class="un">/</text></g><g><rect x="781.5" y="352.0" width="164.5" height="56.0" rx="7" fill="var(--k)" stroke="var(--edge)" stroke-width="1"/><text x="788.5" y="367.0" class="pc">Shift</text><text x="863.8" y="394.0" class="un big">SHIFT</text></g><g><rect x="22.0" y="414.0" width="87.0" height="56.0" rx="7" fill="var(--k)" stroke="var(--edge)" stroke-width="1"/><text x="29.0" y="429.0" class="pc">Ctrl</text><text x="65.5" y="456.0" class="un big">CTRL</text></g><g><rect x="115.0" y="414.0" width="87.0" height="56.0" rx="7" fill="var(--k)" stroke="var(--edge)" stroke-width="1"/><text x="122.0" y="429.0" class="pc">Alt</text><text x="158.5" y="456.0" class="un big">GRAPH</text></g><g><rect x="208.0" y="414.0" width="428.0" height="56.0" rx="7" fill="var(--k)" stroke="var(--edge)" stroke-width="1"/><text x="215.0" y="429.0" class="pc">Space</text><text x="422.0" y="456.0" class="un big">SPACE</text></g><g><rect x="642.0" y="414.0" width="87.0" height="56.0" rx="7" fill="var(--k)" stroke="var(--edge)" stroke-width="1"/><text x="649.0" y="429.0" class="pc">AltGr</text><text x="685.5" y="456.0" class="un big">KANA</text></g><g><rect x="735.0" y="414.0" width="87.0" height="56.0" rx="7" fill="var(--k)" stroke="var(--edge)" stroke-width="1"/><text x="742.0" y="429.0" class="pc">Ctrl</text><text x="778.5" y="456.0" class="un big">BREAK</text></g><g><rect x="992.0" y="166.0" width="56.0" height="56.0" rx="7" fill="var(--k)" stroke="var(--edge)" stroke-width="1"/><text x="999.0" y="181.0" class="pc">Ins</text><text x="1020.0" y="208.0" class="un big">INS</text></g><g><rect x="1054.0" y="166.0" width="56.0" height="56.0" rx="7" fill="var(--k)" stroke="var(--edge)" stroke-width="1"/><text x="1061.0" y="181.0" class="pc">Home</text><text x="1082.0" y="208.0" class="un big">HOME</text></g><g><rect x="1116.0" y="166.0" width="56.0" height="56.0" rx="7" fill="var(--k)" stroke="var(--edge)" stroke-width="1"/><text x="1123.0" y="181.0" class="pc">PgUp</text><text x="1144.0" y="208.0" class="un big">EL</text></g><g><rect x="992.0" y="228.0" width="56.0" height="56.0" rx="7" fill="var(--k)" stroke="var(--edge)" stroke-width="1"/><text x="999.0" y="243.0" class="pc">Del</text><text x="1020.0" y="270.0" class="un big">DEL</text></g><g><rect x="1116.0" y="228.0" width="56.0" height="56.0" rx="7" fill="var(--k)" stroke="var(--edge)" stroke-width="1"/><text x="1123.0" y="243.0" class="pc">PgDn</text><text x="1144.0" y="270.0" class="un big">CLS</text></g><g><rect x="1054.0" y="290.0" width="56.0" height="56.0" rx="7" fill="var(--k)" stroke="var(--edge)" stroke-width="1"/><text x="1061.0" y="305.0" class="pc">Up</text><text x="1082.0" y="332.0" class="un big">UP</text></g><g><rect x="992.0" y="352.0" width="56.0" height="56.0" rx="7" fill="var(--k)" stroke="var(--edge)" stroke-width="1"/><text x="999.0" y="367.0" class="pc">Left</text><text x="1020.0" y="394.0" class="un big">LEFT</text></g><g><rect x="1054.0" y="352.0" width="56.0" height="56.0" rx="7" fill="var(--k)" stroke="var(--edge)" stroke-width="1"/><text x="1061.0" y="367.0" class="pc">Down</text><text x="1082.0" y="394.0" class="un big">DOWN</text></g><g><rect x="1116.0" y="352.0" width="56.0" height="56.0" rx="7" fill="var(--k)" stroke="var(--edge)" stroke-width="1"/><text x="1123.0" y="367.0" class="pc">Right</text><text x="1144.0" y="394.0" class="un big">RIGHT</text></g>
<text x="22" y="480" class="lg">Alt = GRAPH (semigraphics $80-$FD)   |   Right Alt = KANA, a LOCKING toggle   |   Right Ctrl = BREAK   |   Caps Lock does nothing</text>
<text x="22" y="498" class="lg">PgUp = EL (erase line), PgDn = CLS. F1-F10 are PF1-PF10. Generated from rtl/KEYBOARD.v by tools/make-keymap-svg.py.</text>
<text x="22" y="516" class="lg">The numeric keypad is not mapped, except keypad / which types "/".</text>
</svg>
